<svg xmlns="http://www.w3.org/2000/svg" viewBox="0 0 64 64" role="img" aria-label="음성으로 텍스트 쓰기">
  <rect width="64" height="64" rx="14" fill="#146c5d"/>
  <path fill="#ffffff" d="M32 10c-6.1 0-11 4.9-11 11v13c0 6.1 4.9 11 11 11s11-4.9 11-11V21c0-6.1-4.9-11-11-11Zm-6 11c0-3.3 2.7-6 6-6s6 2.7 6 6v13c0 3.3-2.7 6-6 6s-6-2.7-6-6V21Z"/>
  <path fill="#f7d27a" d="M16 30a2.5 2.5 0 0 1 5 0v4c0 6.1 4.9 11 11 11s11-4.9 11-11v-4a2.5 2.5 0 0 1 5 0v4c0 7.9-5.8 14.5-13.5 15.8V55H44a2.5 2.5 0 0 1 0 5H20a2.5 2.5 0 0 1 0-5h9.5v-5.2C21.8 48.5 16 41.9 16 34v-4Z"/>
</svg>
